<?xml version="1.0" encoding="utf-8"?>
<!-- Generator: Adobe Illustrator 24.1.2, SVG Export Plug-In . SVG Version: 6.00 Build 0)  -->
<svg version="1.1" id="Layer_1" xmlns="http://www.w3.org/2000/svg" xmlns:xlink="http://www.w3.org/1999/xlink" x="0px" y="0px"
	 viewBox="0 0 1630.6 504.1" style="enable-background:new 0 0 1630.6 504.1;" xml:space="preserve">
<style type="text/css">
	.st0{fill:#91AF5D;}
	.st1{fill:#7FA15A;}
	.st2{enable-background:new    ;}
	.st3{fill:#666666;}
</style>
<g id="Layer_2_1_">
	<g id="Layer_1-2">
		<path class="st0" d="M277.2,0c0,0,44.5,109-146.3,182.1c-103.7,39.8-183.4,141.7-88.3,299c7.9-70.4,41.7-225.5,186.9-260.9
			c0,0-135.2,50.5-147.1,279.4c69.5,9.8,232.4,16.3,280.7-125.1C426.9,187.8,277.2,0,277.2,0z"/>
		<path class="st1" d="M82.4,498.7C229.9,439.9,337.1,302,352,137.4C321.8,56.1,277.2,0,277.2,0s44.5,109-146.3,182.1
			c-103.7,39.8-183.4,141.7-88.3,299c7.9-70.4,41.7-225.5,186.9-260.9C229.4,220.3,94.7,270.7,82.4,498.7z"/>
		<circle class="st0" cx="27.9" cy="172" r="13.8"/>
		<circle class="st1" cx="71.2" cy="158.2" r="9.9"/>
		<circle class="st1" cx="62.3" cy="64.7" r="24.6"/>
		<circle class="st1" cx="138.1" cy="120.8" r="7.9"/>
		<circle class="st1" cx="204.1" cy="76.5" r="22.6"/>
		<g class="st2">
			<path d="M484.4,141.6h-74.2v-35.2h190.1v35.2H526v188.8h-41.6V141.6z"/>
			<path d="M799.6,295.5v34.9h-168v-224h163.5v34.9H673.2v58.2h108.2v34.2H673.2v61.8H799.6z"/>
			<path d="M991.3,278.5h-112l-22.1,51.8h-42.9l100.8-224h41l101.1,224h-43.5L991.3,278.5z M977.5,245.9l-42.2-97.9l-41.9,97.9
				H977.5z"/>
			<path d="M1291.4,330.3l-0.3-148.5l-73.6,122.9H1199l-73.6-121v146.6h-39.7v-224h34.2l89,148.5l87.4-148.5h34.2l0.3,224H1291.4z"
				/>
			<path d="M1434.1,318.7c-18.3-9.9-32.8-23.7-43.2-41.3c-10.5-17.6-15.7-37.3-15.7-59s5.2-41.4,15.7-59
				c10.5-17.6,24.9-31.4,43.2-41.3c18.3-9.9,38.9-14.9,61.8-14.9c22.8,0,43.4,5,61.8,14.9c18.3,9.9,32.7,23.6,43.2,41.1
				c10.5,17.5,15.7,37.2,15.7,59.2c0,22-5.2,41.7-15.7,59.2c-10.5,17.5-24.9,31.2-43.2,41.1c-18.4,9.9-38.9,14.9-61.8,14.9
				C1473.1,333.5,1452.5,328.6,1434.1,318.7z M1536.2,287c11.9-6.7,21.3-16.1,28.2-28.2c6.8-12.1,10.2-25.5,10.2-40.5
				c0-14.9-3.4-28.4-10.2-40.5c-6.8-12-16.2-21.4-28.2-28.2c-12-6.7-25.4-10.1-40.3-10.1c-14.9,0-28.4,3.4-40.3,10.1
				c-12,6.7-21.3,16.1-28.2,28.2c-6.8,12.1-10.2,25.6-10.2,40.5c0,14.9,3.4,28.4,10.2,40.5c6.8,12.1,16.2,21.4,28.2,28.2
				c11.9,6.7,25.4,10.1,40.3,10.1C1510.8,297.1,1524.3,293.7,1536.2,287z"/>
		</g>
		<g class="st2">
			<path class="st3" d="M523.2,405.8c5,4.2,7.5,10,7.5,17.3c0,7.3-2.5,13.1-7.5,17.3c-5,4.2-11.9,6.3-20.7,6.3h-20v22.9h-5.1v-70
				h25.1C511.3,399.5,518.2,401.6,523.2,405.8z M519.6,437.1c3.9-3.3,5.9-7.9,5.9-14c0-6.1-2-10.8-5.9-14c-3.9-3.3-9.6-5-17.1-5h-20
				V442h20C510,442,515.7,440.4,519.6,437.1z"/>
		</g>
		<g class="st2">
			<path class="st3" d="M587.9,399.5h5.1V465h40.3v4.6h-45.4V399.5z"/>
		</g>
		<g class="st2">
			<path class="st3" d="M729.8,449.8h-40.6l-8.9,19.7h-5.5l32.2-70h5.1l32.2,70h-5.5L729.8,449.8z M727.9,445.5l-18.4-40.4
				l-18.3,40.4H727.9z"/>
			<path class="st3" d="M854,399.5v70h-4.2l-47.7-60.8v60.8H797v-70h4.3l47.6,60.8v-60.8H854z"/>
		</g>
		<g class="st2">
			<path class="st3" d="M931.8,404.1h-25.2v-4.6h55.5v4.6h-25.2v65.4h-5.1V404.1z"/>
		</g>
		<g class="st2">
			<path class="st3" d="M1017.2,467.4c-4.6-1.8-8.3-4-10.9-6.8l2.3-3.8c2.5,2.6,5.8,4.7,10,6.3c4.2,1.6,8.5,2.5,13.2,2.5
				c6.7,0,11.7-1.3,15.1-3.8c3.4-2.5,5.1-5.8,5.1-9.9c0-3.1-0.9-5.6-2.7-7.5c-1.8-1.9-4-3.3-6.7-4.3c-2.7-1-6.3-2-10.8-3.1
				c-5.1-1.3-9.3-2.5-12.4-3.7c-3.1-1.2-5.7-3-7.9-5.5c-2.2-2.5-3.3-5.9-3.3-10.1c0-3.4,0.9-6.5,2.7-9.3c1.8-2.8,4.5-5.1,8.3-6.8
				c3.7-1.7,8.3-2.5,13.8-2.5c3.9,0,7.7,0.6,11.4,1.7c3.7,1.1,7,2.7,9.7,4.6l-1.9,4.1c-2.8-1.9-5.9-3.4-9.3-4.4
				c-3.4-1-6.7-1.5-10-1.5c-6.5,0-11.4,1.3-14.7,3.9c-3.3,2.6-5,6-5,10.1c0,3.1,0.9,5.6,2.7,7.5c1.8,1.9,4,3.3,6.7,4.3
				c2.7,1,6.3,2.1,10.9,3.2c5.1,1.3,9.2,2.5,12.3,3.7c3.1,1.2,5.7,3,7.8,5.5c2.2,2.4,3.3,5.7,3.3,9.8c0,3.4-0.9,6.5-2.8,9.3
				c-1.8,2.8-4.7,5-8.5,6.7c-3.8,1.7-8.5,2.5-14,2.5C1026.7,470,1021.8,469.2,1017.2,467.4z"/>
			<path class="st3" d="M1183.7,467.4c-4.6-1.8-8.3-4-10.8-6.8l2.3-3.8c2.5,2.6,5.8,4.7,10,6.3c4.2,1.6,8.5,2.5,13.1,2.5
				c6.7,0,11.7-1.3,15.1-3.8c3.4-2.5,5.1-5.8,5.1-9.9c0-3.1-0.9-5.6-2.7-7.5c-1.8-1.9-4-3.3-6.7-4.3c-2.7-1-6.3-2-10.8-3.1
				c-5.1-1.3-9.3-2.5-12.3-3.7c-3.1-1.2-5.7-3-7.9-5.5c-2.2-2.5-3.3-5.9-3.3-10.1c0-3.4,0.9-6.5,2.7-9.3c1.8-2.8,4.5-5.1,8.3-6.8
				c3.7-1.7,8.3-2.5,13.8-2.5c3.9,0,7.7,0.6,11.4,1.7c3.7,1.1,7,2.7,9.7,4.6l-1.9,4.1c-2.8-1.9-5.9-3.4-9.3-4.4
				c-3.4-1-6.7-1.5-10-1.5c-6.5,0-11.4,1.3-14.7,3.9c-3.3,2.6-5,6-5,10.1c0,3.1,0.9,5.6,2.7,7.5c1.8,1.9,4,3.3,6.7,4.3
				c2.7,1,6.3,2.1,10.9,3.2c5.1,1.3,9.2,2.5,12.3,3.7c3.1,1.2,5.7,3,7.8,5.5c2.2,2.4,3.3,5.7,3.3,9.8c0,3.4-0.9,6.5-2.8,9.3
				c-1.8,2.8-4.6,5-8.4,6.7c-3.8,1.7-8.5,2.5-14,2.5C1193.3,470,1188.4,469.2,1183.7,467.4z"/>
			<path class="st3" d="M1337.9,399.5v70h-5.1v-33.3H1286v33.3h-5.1v-70h5.1v32.2h46.8v-32.2H1337.9z"/>
			<path class="st3" d="M1413.4,465.4c-5.5-3.1-9.9-7.3-13-12.8c-3.2-5.4-4.8-11.4-4.8-18.1c0-6.7,1.6-12.7,4.8-18.1
				c3.2-5.4,7.5-9.7,13-12.8c5.5-3.1,11.7-4.7,18.6-4.7c6.9,0,13.1,1.5,18.6,4.6c5.5,3.1,9.9,7.3,13,12.7c3.2,5.4,4.8,11.5,4.8,18.2
				c0,6.7-1.6,12.8-4.8,18.2c-3.2,5.4-7.5,9.6-13,12.7c-5.5,3.1-11.7,4.6-18.6,4.6C1425.1,470,1418.9,468.5,1413.4,465.4z
				 M1447.9,461.3c4.7-2.7,8.5-6.3,11.2-11c2.7-4.7,4.1-10,4.1-15.8s-1.4-11-4.1-15.8c-2.7-4.7-6.5-8.4-11.2-11
				c-4.7-2.7-10-4-15.9-4c-5.9,0-11.2,1.3-16,4c-4.8,2.7-8.5,6.3-11.3,11c-2.7,4.7-4.1,10-4.1,15.8s1.4,11,4.1,15.8
				c2.7,4.7,6.5,8.4,11.3,11c4.8,2.7,10.1,4,16,4C1437.9,465.3,1443.2,464,1447.9,461.3z"/>
			<path class="st3" d="M1571.9,405.8c5,4.2,7.5,10,7.5,17.3c0,7.3-2.5,13.1-7.5,17.3c-5,4.2-11.9,6.3-20.7,6.3h-20v22.9h-5.1v-70
				h25.1C1560,399.5,1566.9,401.6,1571.9,405.8z M1568.3,437.1c3.9-3.3,5.9-7.9,5.9-14c0-6.1-2-10.8-5.9-14c-3.9-3.3-9.6-5-17.1-5
				h-20V442h20C1558.7,442,1564.4,440.4,1568.3,437.1z"/>
		</g>
	</g>
</g>
</svg>
